<?xml version="1.0" encoding="UTF-8"?>
<svg data-name="Layer 1" viewBox="0 0 987.59 714.03" xmlns="http://www.w3.org/2000/svg">
<path transform="translate(-106.21 -92.986)" d="m252.62 599.14a10.056 10.056 0 0 0-15.32-1.7441l-31.754-16.39 1.974 18.464 29.852 12.734a10.11 10.11 0 0 0 15.249-13.064z" fill="#a0616a"/>
<path transform="translate(-106.21 -92.986)" d="m224.39 606.57a4.505 4.505 0 0 1-3.669 0.03913l-30.162-13.084a46.373 46.373 0 0 1-23.462-22.698l-15.857-33.471a14.497 14.497 0 1 1 22.901-17.781l27.873 51.714 25.737 19.442a4.5147 4.5147 0 0 1 1.5866 4.9213l-2.5261 8.1592a4.5056 4.5056 0 0 1-1.5237 2.2115 4.4547 4.4547 0 0 1-0.89694 0.54707z" fill="#ccc"/>
<circle cx="44.34" cy="380.45" r="24.561" fill="#a0616a"/>
<polygon points="54.289 702.64 66.548 702.64 72.381 655.36 54.286 655.36" fill="#a0616a"/>
<path transform="translate(248.1 1506.1) rotate(180)" d="m157.87 792.13h38.531v14.887h-23.644a14.887 14.887 0 0 1-14.887-14.887 0 0 0 0 1 1e-5 5e-5z" fill="#2f2e41"/>
<polygon points="14.289 702.64 26.548 702.64 32.381 655.36 14.286 655.36" fill="#a0616a"/>
<path transform="translate(168.1 1506.1) rotate(180)" d="m117.87 792.13h38.531v14.887h-23.644a14.887 14.887 0 0 1-14.887-14.887z" fill="#2f2e41"/>
<path transform="translate(-106.21 -92.986)" d="m116.21 782.09a4.4985 4.4985 0 0 1-1.075-3.5586l21.465-160.99 53.329 9.0566 5.6914-3.415-14.717 152.74a4.5123 4.5123 0 0 1-4.0962 3.9639l-16.148 1.3457a4.4992 4.4992 0 0 1-4.8665-4.7422l4.1807-72.742a0.50006 0.50006 0 0 0-0.98194-0.16016l-20.683 76.7a4.5077 4.5077 0 0 1-4.3447 3.3291h-14.367a4.4984 4.4984 0 0 1-3.3858-1.5362z" fill="#2f2e41"/>
<path transform="translate(-106.21 -92.986)" d="m153.15 628.82a3.5328 3.5328 0 0 0-4.5161-0.18847l-10.662 8.293a4.4961 4.4961 0 0 1-7.0874-2.3066c-5.2297-18.315-17.078-64.418-14.159-96.866 1.6546-18.393 17.537-32.371 35.405-31.198 12.216 0.81446 20.252 7.8613 23.886 20.944 8.9226 32.122 18.728 91.044 20.603 102.53a4.4802 4.4802 0 0 1-2.1365 4.5889 32.939 32.939 0 0 1-16.692 4.6973c-7.1191-3e-5 -15.655-2.4786-24.641-10.494z" fill="#ccc"/>
<path transform="translate(-106.21 -92.986)" d="m157.17 640.25a10.056 10.056 0 0 0-10.979-10.827l-14.872-32.493-9.8415 15.747 15.631 28.442a10.11 10.11 0 0 0 20.061-0.86907z" fill="#a0616a"/>
<path transform="translate(-106.21 -92.986)" d="m130.38 628.68a4.505 4.505 0 0 1-2.9111-2.2334l-15.659-28.909a46.374 46.374 0 0 1-4.4544-32.339l8.1785-36.123a14.497 14.497 0 1 1 28.993 0.1416l-9.9814 57.893 8.2537 31.181a4.5147 4.5147 0 0 1-1.7886 4.8516l-7.023 4.8613a4.5057 4.5057 0 0 1-2.5637 0.79981 4.4546 4.4546 0 0 1-1.0434-0.12309z" fill="#ccc"/>
<polygon points="36.325 460.64 27.325 498.64 40.325 530.64 31.325 499.64" opacity=".2"/>
<path transform="translate(-106.21 -92.986)" d="m136.53 493.63a16.539 16.539 0 0 1-6.388-1.1558c-0.89411-0.34457-1.8222-0.62778-2.7147-0.97258-7.8817-3.0451-13.074-11.439-13.26-19.886s4.1887-16.646 10.685-22.05 14.91-8.1775 23.335-8.819c9.0752-0.691 19.294 1.6104 24.365 9.1682 1.3498 2.0118 2.2939 4.4526 1.494 6.8816a4.4036 4.4036 0 0 1-1.2408 1.9059c-2.2647 2.0149-4.5225 0.49988-6.8312 0.366-3.1732-0.184-6.0234 2.3846-7.0478 5.3936s-0.57345 6.3216 0.25366 9.3907a23.459 23.459 0 0 1 1.1825 5.7101 5.7406 5.7406 0 0 1-2.3786 5.0547c-1.9829 1.1986-4.5869 0.5049-6.571-0.69175s-3.6984-2.8605-5.8416-3.741-5.0224-0.68526-6.2698 1.2673a6.9349 6.9349 0 0 0-0.79266 2.2886c-1.1183 5.0949-0.86126 4.7948-1.9795 9.8897z" fill="#2f2e41"/>
<path transform="translate(-106.21 -92.986)" d="m863.54 323.47h-607a8.7277 8.7277 0 0 0-8.7202 8.72v411.32a8.7278 8.7278 0 0 0 8.7202 8.72h607a8.7122 8.7122 0 0 0 6.6299-3.06 2.0396 2.0396 0 0 0 0.18994-0.24005 8.1651 8.1651 0 0 0 1.25-2.11 8.4986 8.4986 0 0 0 0.65967-3.31v-256.05h-2.4898v256.05a6.1785 6.1785 0 0 1-1.0298 3.42 6.4528 6.4528 0 0 1-2.3604 2.1201 6.1823 6.1823 0 0 1-2.8496 0.69h-607a6.2377 6.2377 0 0 1-6.2305-6.23v-411.32a6.2376 6.2376 0 0 1 6.2305-6.23h607a6.2393 6.2393 0 0 1 6.2398 6.23v55.27h2.4898v-55.27a8.7294 8.7294 0 0 0-8.7295-8.72z" fill="#3f3d56"/>
<rect x="142.85" y="265.43" width="621.96" height="2.4928" fill="#3f3d56"/>
<circle cx="164.04" cy="249.18" r="7.4784" fill="#ccc"/>
<circle cx="185.54" cy="249.18" r="7.4784" fill="#ccc"/>
<circle cx="207.04" cy="249.18" r="7.4784" fill="#ccc"/>
<path transform="translate(-106.21 -92.986)" d="m463.46 701.81a15.479 15.479 0 0 1-14.066-21.782l17.816-39.75a131.99 131.99 0 0 1-44.541-99.096c0-73.185 59.54-132.73 132.73-132.73s132.73 59.542 132.73 132.73-59.54 132.73-132.73 132.73a131.99 131.99 0 0 1-37.798-5.5675l-45.47 30.782a15.433 15.433 0 0 1-8.6677 2.6858zm91.935-274.83a114.14 114.14 0 0 0-71.106 203.48l5.6127 4.4763-19.17 42.773 43.991-29.782 4.3436 1.4589a114.18 114.18 0 1 0 36.329-222.41z" fill="#3f3d56"/>
<circle cx="449.19" cy="442.02" r="18.52" fill="#3f3d56"/>
<circle cx="396.72" cy="442.02" r="18.52" fill="#3f3d56"/>
<circle cx="501.66" cy="442.02" r="18.52" fill="#3f3d56"/>
<path transform="translate(-106.21 -92.986)" d="m1021.1 461.71h-176a8 8 0 1 1 0-16h176a8 8 0 0 1 0 16z" fill="#ccc"/>
<path transform="translate(-106.21 -92.986)" d="m906.12 427.71h-61a8 8 0 1 1 0-16h61a8 8 0 0 1 0 16z" fill="#ccc"/>
<circle cx="659.2" cy="344.47" r="34" fill="#6859d4"/>
<path transform="translate(-106.21 -92.986)" d="m1038.8 385.46h-317a17.024 17.024 0 0 0-17 17v70a17.024 17.024 0 0 0 17 17h317a17.024 17.024 0 0 0 17-17v-70a17.024 17.024 0 0 0-17-17zm15 87a15.018 15.018 0 0 1-15 15h-317a15.018 15.018 0 0 1-15-15v-70a15.018 15.018 0 0 1 15-15h317a15.018 15.018 0 0 1 15 15z" fill="#3f3d56"/>
<circle cx="947.55" cy="297.47" r="23" fill="#6859d4"/>
<path transform="translate(-106.21 -92.986)" d="m1053.1 403.39a0.99636 0.99636 0 0 1-0.29278-0.70711v-25.456a0.99989 0.99989 0 1 1 1.9998 0v25.456a1 1 0 0 1-1.707 0.70711z" fill="#fff"/>
<path transform="translate(-106.21 -92.986)" d="m1040.3 390.66a1 1 0 0 1 0.70711-1.707h25.456a0.99989 0.99989 0 1 1 0 1.9998h-25.456a0.99632 0.99632 0 0 1-0.70711-0.29278z" fill="#fff"/>
<path transform="translate(-106.21 -92.986)" d="m1081.3 696.16h-48.01c0 1.38-49.48 2.5-49.48 2.5a12.86 12.86 0 0 0-2.1099 2 12.41 12.41 0 0 0-2.9004 8v2a12.505 12.505 0 0 0 12.5 12.5h90a12.511 12.511 0 0 0 12.5-12.5v-2a12.517 12.517 0 0 0-12.5-12.5z" fill="#3f3d56"/>
<rect x="924.08" y="629.68" width="13" height="84" fill="#3f3d56"/>
<path transform="translate(-106.21 -92.986)" d="m1080.3 806.21c0 1.4046-19.699 0.54331-44 0.54331s-44 0.86132-44-0.54331 19.699-12.543 44-12.543 44 11.139 44 12.543z" fill="#3f3d56"/>
<circle cx="934.75" cy="462.61" r="28" fill="#2f2e41"/>
<polygon points="865.07 702.18 852.81 702.17 846.98 654.89 865.08 654.89" fill="#ffb8b8"/>
<path d="m844.06 698.67h23.644v14.887h-38.531a14.887 14.887 0 0 1 14.887-14.887z" fill="#2f2e41"/>
<polygon points="845.94 695.33 834.24 691.66 842.83 644.8 860.09 650.21" fill="#ffb8b8"/>
<path transform="translate(172.36 -336.86) rotate(17.423)" d="m930.71 779.65h23.644v14.887h-38.531a14.887 14.887 0 0 1 14.887-14.887z" fill="#2f2e41"/>
<path transform="translate(-106.21 -92.986)" d="m1048.5 687.97a37.872 37.872 0 0 0-1.52-7.02l-2.29-2.88-5.96-7.48-0.25977 0.01c-0.44043 0.02-2.2705 0.12-5.1001 0.34h-0.03028c-1.75 0.14-3.8901 0.32-6.3198 0.55-0.64014 0.07-1.3101 0.13-2 0.2v10.44h12.5a2.5044 2.5044 0 0 1 2.48 2.18c0.00976 0.11 0.02 0.21 0.02 0.32a2.501 2.501 0 0 1-2.5 2.5h-72.6a28.404 28.404 0 0 0-2.6602 2 14.882 14.882 0 0 0-5.25 7.86c-4.2397 18.64-11.97 53.4-14.25 63.61a4.5382 4.5382 0 0 0 1.3501 4.28 4.436 4.436 0 0 0 1.4702 0.91l9.02 3.3799a4.7924 4.7924 0 0 0 1.1499 0.27c0.0498 0 0.08984 0.01 0.14013 0.01a2.6138 2.6138 0 0 0 0.27979 0.01 4.5322 4.5322 0 0 0 4.21-2.9l7.1201-18.68 10.97-28.8 4.3398-11.39c5.0298 1.18 47.23 10.52 61.36-4.53a16.068 16.068 0 0 0 3.2402-5.11 20.802 20.802 0 0 0 1.0898-10.08z" fill="#2f2e41"/>
<path transform="translate(-106.21 -92.986)" d="m1060.7 690.69c-0.21972-0.89-0.46972-1.81-0.75976-2.74l-8.25-10.36-0.25977 0.01c-0.5205 0.03-2.9902 0.16-6.7803 0.47-4.2998 0.36-10.31 0.94-17.06 1.85-0.19971 0.02-0.40967 0.05005-0.60986 0.08-0.66016 0.09-1.3301 0.18-2 0.28v1.85h12.5a2.5044 2.5044 0 0 1 2.48 2.18c0.00976 0.11 0.02 0.21 0.02 0.32a2.501 2.501 0 0 1-2.5 2.5h-44.18c-1.9297 0.63-3.79 1.29-5.5698 2-9.3398 3.7-16.33 8.55-17.76 14.86-0.48 2.12-1.0098 4.45-1.5698 6.93-2.0801 9.22-4.6099 20.51-6.8999 30.77v0.01c-0.47022 2.12-0.93994 4.18-1.3901 6.18-1.9102 8.6-3.5298 15.89-4.3901 19.72-0.02 0.11-0.03955 0.21-0.06 0.31994v0.02a4.6671 4.6671 0 0 0 0.28027 2.29l0.00976 0.01v0.01a4.4299 4.4299 0 0 0 1.3003 1.79 4.5932 4.5932 0 0 0 1.29 0.75l9.02 3.3799a4.5803 4.5803 0 0 0 1.5698 0.29 4.4349 4.4349 0 0 0 2.1499-0.55 4.501 4.501 0 0 0 2.0601-2.35l19.42-50.96 3.0103-7.91c5.0298 1.18 47.23 10.51 61.36-4.53a16.891 16.891 0 0 0 4.48-11.07 29.687 29.687 0 0 0-0.91017-8.3999z" fill="#2f2e41"/>
<path transform="translate(-106.21 -92.986)" d="M1059.58978,602.46532c-.15967-.19-.33008-.38-.50976-.56a24.47216,24.47216,0,0,0-20.97022-7.39,79.3619,79.3619,0,0,0-9.91016,1.95,24.98105,24.98105,0,0,0-11.17968,6.27,24.41416,24.41416,0,0,0-7.41016,18.2c.04,1.37.04981,2.77.03027,4.19,0,.66-.01025,1.33-.02,2h9.85987a5.31954,5.31954,0,0,1,1.27.15,5.511,5.511,0,0,1,4.23,5.35v46.52c.66992.19,1.33984.38,2,.58.21.07.41015.13.60986.18994.23.07.46.14.68018.21q3.04467.945,5.9497,2h3.26026a2.50441,2.50441,0,0,1,2.48,2.18c.68017.27,1.33984.54,1.98974.81,2.31006.96,4.5,1.92,6.51026,2.85,2.71,1.24,5.12012,2.42,7.14013,3.44995a4.5871,4.5871,0,0,0,2.04981.5,4.404,4.404,0,0,0,2.6001-.86,5.52922,5.52922,0,0,0,.4497-.37,4.50453,4.50453,0,0,0,1.37012-3.98,128.08608,128.08608,0,0,1-.8999-23.7c.27978-6.65.87988-13.47,1.66016-20.06.41992-3.57.88964-7.07,1.37988-10.44.47021-3.22.97021-6.31,1.46-9.23A24.60707,24.60707,0,0,0,1059.58978,602.46532Z" fill="#6859d4"/>
<path transform="translate(-106.21 -92.986)" d="m1018.6 603.29a11.859 11.859 0 0 0-1.5801-0.55005 11.499 11.499 0 0 0-13.54 6.53l-6.8701 15.86-0.85986 2h23.73a5.3195 5.3195 0 0 1 1.27 0.15l0.7998-1.85 3.04-7.02a11.512 11.512 0 0 0-5.9898-15.12z" fill="#6859d4"/>
<circle cx="933.73" cy="469.16" r="24.561" fill="#ffb8b8"/>
<path transform="translate(-106.21 -92.986)" d="m1014.9 550.08a88.591 88.591 0 0 0 38.326 12.628l-4.0399-4.8406a29.688 29.688 0 0 0 9.1707 1.8211c3.1302-0.04875 6.4099-1.254 8.1864-3.8317a9.342 9.342 0 0 0 0.62532-8.6297 17.694 17.694 0 0 0-5.5664-6.9602 33.14 33.14 0 0 0-30.844-5.5125 19.806 19.806 0 0 0-9.2124 5.9094c-2.3284 2.8724-6.811 5.4316-5.6188 8.9317z" fill="#2f2e41"/>
<path transform="translate(-106.21 -92.986)" d="m1044.1 530.26a75.485 75.485 0 0 0-27.463-17.759c-6.6387-2.4594-13.865-3.979-20.805-2.5823s-13.504 6.1981-15.44 13.008c-1.5833 5.5684 0.05158 11.564 2.5087 16.806s5.7376 10.102 7.7246 15.54a35.468 35.468 0 0 1-35.689 47.562c6.8194 0.91438 13.105 4.119 19.771 5.8248s14.533 1.5901 19.486-3.1852c5.2409-5.0524 5.3458-13.267 5.0925-20.542q-0.565-16.222-1.13-32.445c-0.1921-5.5154-0.35615-11.208 1.6329-16.356s6.7162-9.6557 12.235-9.6088c4.1825 0.0355 7.8844 2.5692 11.239 5.068s6.9044 5.1647 11.071 5.5364 8.9229-2.7114 8.6112-6.8825z" fill="#2f2e41"/>
<path transform="translate(-106.21 -92.986)" d="m1064.2 632.51-14.02 0.38-1.02 9.85-0.23 2.28-21.96 9.86-2 0.9v17.53l2-0.57 6.3198-1.8h0.03028l27.84-7.93 0.31982-0.09a10.879 10.879 0 0 0 7.8604-10.35l0.06983-11.63 0.06006-8.57z" fill="#ffb8b8"/>
<path transform="translate(-106.21 -92.986)" d="m1068.8 613.03a11.502 11.502 0 0 0-22.96 1.41l1.5298 24.96a4.4864 4.4864 0 0 0 1.8301 3.34 4.4354 4.4354 0 0 0 2.9399 0.87l10.72-0.66 3.25-0.2a4.385 4.385 0 0 0 3.1001-1.51 3.1368 3.1368 0 0 0 0.23975-0.3 4.4688 4.4688 0 0 0 0.87988-2.96z" fill="#6859d4"/>
<path transform="translate(-106.21 -92.986)" d="m1028.3 680.13h-1.29v-0.13c-0.66016 0.09-1.3301 0.18-2 0.28v1.85h9.2397q-2.91-1.05-5.9497-2zm0 0h-1.29v-0.13c-0.66016 0.09-1.3301 0.18-2 0.28v1.85h9.2397q-2.91-1.05-5.9497-2zm9.21 0h-10.5v-47.5a7.5108 7.5108 0 0 0-5.4302-7.2 7.0508 7.0508 0 0 0-2.0698-0.3h-89a7.5091 7.5091 0 0 0-7.5 7.5v49a7.5026 7.5026 0 0 0 7.5 7.5h107a4.5046 4.5046 0 0 0 4.4697-4.01 3.9032 3.9032 0 0 0 0.03028-0.49 4.5068 4.5068 0 0 0-4.5001-4.5zm2.5 4.5a2.501 2.501 0 0 1-2.5 2.5h-107a5.5032 5.5032 0 0 1-5.5-5.5v-49a5.5033 5.5033 0 0 1 5.5-5.5h89a5.3195 5.3195 0 0 1 1.27 0.15 5.511 5.511 0 0 1 4.23 5.35v49.5h12.5a2.5044 2.5044 0 0 1 2.48 2.18c0.00966 0.10997 0.01992 0.21001 0.01992 0.32zm-11.71-4.5h-1.29v-0.13c-0.66016 0.09-1.3301 0.18-2 0.28v1.85h9.2397q-2.91-1.05-5.9497-2z" fill="#3f3d56"/>
<circle cx="868.77" cy="564.14" r="6" fill="#6859d4"/>
<path transform="translate(-106.21 -92.986)" d="m439.06 164.35a8.7014 8.7014 0 0 0 0.04121 1.3695l-31.402 26.354-9.3644-3.3905-6.9641 13.464 20.474 9.7454 34.33-38.524a8.6762 8.6762 0 1 0-7.1142-9.0184z" fill="#ffb8b8"/>
<path transform="translate(-106.21 -92.986)" d="m396.94 208.61-30.324-10.945a11.159 11.159 0 1 1 7.5775-20.993l30.324 10.945a3.719 3.719 0 0 1 2.2357 4.7613l-5.0514 13.996a3.7251 3.7251 0 0 1-4.7618 2.236z" fill="#ccc"/>
<polygon points="268.53 222.25 278.66 222.25 283.48 183.16 268.53 183.16" fill="#ffb8b8"/>
<path transform="translate(670.79 543.99) rotate(180)" d="m372.56 312.34h31.851v12.306h-19.545a12.306 12.306 0 0 1-12.306-12.306 0 0 0 0 1 4e-5 0z" fill="#2f2e41"/>
<polygon points="243.48 209.16 251.77 214.99 278.2 185.79 265.97 177.18" fill="#ffb8b8"/>
<path transform="translate(366.06 677.87) rotate(215.11)" d="m342.14 304.57h31.851v12.306h-19.545a12.306 12.306 0 0 1-12.306-12.306z" fill="#2f2e41"/>
<path transform="translate(-106.21 -92.986)" d="m396.91 244.82s25.291-2.9839 20.751 13.428-55.121 30.585-55.121 30.585z" fill="#ffb8b8"/>
<circle cx="273.3" cy="47.794" r="20.303" fill="#ffb8b8"/>
<path transform="translate(-106.21 -92.986)" d="m314.76 285.47c-11.553-13.452-15.595-34.098 2.8282-51.269a60.725 60.725 0 0 1 15.28-10.147l14.849-41.525a22.628 22.628 0 0 1 20.911-15.042 21.655 21.655 0 0 1 21.007 13.509 18.796 18.796 0 0 1 0.58324 13.312 213.83 213.83 0 0 1-17.325 39.64l0.76771 6.1424 37.532 3.3356-0.35014 0.56912c-0.18265 0.29707-18.551 28.284-42.05 46.861-8.0348 6.3515-16.343 8.984-24.185 8.9832-11.891-8.1e-4 -22.706-6.0544-29.847-14.369z" fill="#ccc"/>
<path transform="translate(-106.21 -92.986)" d="m311.21 147.15c3.5919-4.2802 5.1326-9.8786 6.3721-15.327 1.9608-8.6208 3.4785-17.535 7.8352-25.228 4.3564-7.693 12.363-14.067 21.191-13.582 8.7773 0.48244 15.874 7.5441 19.64 15.579a6.987 6.987 0 0 1 5.6738 0.27356c2.7148 1.4867 3.7299 5.7122 1.47 7.8276a18.757 18.757 0 0 1 15.274-0.38077 18.463 18.463 0 0 1 11.184 15.668 10.066 10.066 0 0 1-2.6765 7.5519c-3.8954 4.0102-9.405 2.6269-14.304 1.6053-4.6272-0.96488-10.263-1.2254-12.87 3.1834a8.2633 8.2633 0 0 0-0.804 6.0387c0.99858 4.4011 4.2571 7.4666 7.4183 10.401l0.517 0.96049c-11.162 2.1766-23.35-5.4462-26.278-16.435s3.8514-23.665 14.616-27.331a4.0254 4.0254 0 0 1-3.6141-6.0315 19.136 19.136 0 0 0-9.7666-2.4367c-5.5604 0.36478-10.372 4.3229-13.266 9.0849-2.894 4.7621-4.2042 10.289-5.5317 15.701-1.3271 5.412-2.7636 10.928-5.8579 15.562a24.765 24.765 0 0 1-39.678 2.0352 19.764 19.764 0 0 0 23.454-4.7206z" fill="#2f2e41"/>
<circle cx="354.13" cy="79.982" r="29.512" fill="#6859d4"/>
<path transform="translate(-106.21 -92.986)" d="m459.43 189.57a1.2785 1.2785 0 0 1-0.37568-0.90731v-32.663a1.283 1.283 0 0 1 2.566 0v32.663a1.2831 1.2831 0 0 1-2.1903 0.90731z" fill="#fff"/>
<path transform="translate(-106.21 -92.986)" d="m443.1 173.23a1.2831 1.2831 0 0 1 0.9073-2.1903h32.663a1.283 1.283 0 1 1 0 2.566h-32.663a1.2784 1.2784 0 0 1-0.9073-0.37571z" fill="#fff"/>
<path transform="translate(-106.21 -92.986)" d="m440.08 192.71a8.7028 8.7028 0 0 0-0.54479 1.2572l-39.626 10.508-7.0353-7.0492-12.026 9.227 14.39 17.523 47.449-20.279a8.6762 8.6762 0 1 0-2.6064-11.187z" fill="#ffb8b8"/>
<path transform="translate(-106.21 -92.986)" d="m383.15 214.86-22.796-22.796a11.159 11.159 0 1 1 15.782-15.782l22.796 22.796a3.719 3.719 0 0 1 0 5.2601l-10.521 10.522a3.7251 3.7251 0 0 1-5.2607 0z" fill="#ccc"/>
</svg>
